 <svg version="1.0" xmlns="http://www.w3.org/2000/svg"  width="134.000000pt" height="135.000000pt" viewBox="0 0 134.000000 135.000000"  preserveAspectRatio="xMidYMid meet">  <g transform="translate(0.000000,135.000000) scale(0.100000,-0.100000)" fill="#000000" stroke="none"> <path d="M556 1256 c-20 -18 -36 -41 -36 -50 0 -11 -9 -16 -32 -16 -18 0 -47 -9 -65 -20 -58 -35 -63 -57 -63 -276 l0 -196 -40 36 c-45 40 -93 47 -154 22 -35 -15 -66 -66 -66 -109 0 -26 34 -97 90 -187 183 -295 170 -269 170 -343 l0 -67 363 2 362 3 3 449 c1 291 -1 462 -8 487 -13 47 -77 99 -122 99 -23 0 -28 4 -28 25 0 66 -62 125 -130 125 -27 0 -53 8 -78 25 -26 18 -50 25 -84 25 -39 0 -52 -5 -82 -34z m112 -333 l2 -253 55 0 55 0 0 230 c0 223 1 230 20 230 19 0 20 -7 20 -230 l0 -230 55 0 55 0 0 143 c0 150 7 180 34 158 14 -12 16 -61 16 -412 l0 -399 -254 0 -253 0 -6 32 c-4 28 -219 393 -248 422 -12 13 -12 43 1 51 6 3 48 -30 94 -74 47 -45 91 -81 100 -81 8 0 24 12 35 26 20 25 21 39 21 286 0 242 1 259 18 256 15 -3 17 -22 20 -206 l2 -202 55 0 55 0 0 256 0 255 23 -3 22 -3 3 -252z"/> <path d="M672 565 c-24 -20 -35 -23 -55 -16 -30 12 -62 -3 -90 -41 -20 -27 -20 -28 -2 -68 17 -37 17 -41 2 -58 -46 -50 14 -133 82 -115 15 4 29 -1 42 -16 28 -30 65 -36 105 -18 32 16 36 23 38 72 1 13 9 21 23 23 29 4 63 47 63 79 0 27 -41 73 -65 73 -11 0 -15 11 -15 39 0 69 -71 94 -128 46z m71 -95 c33 -26 41 -63 22 -100 -20 -38 -49 -53 -90 -46 -39 8 -63 32 -71 72 -4 24 0 37 21 62 32 38 78 43 118 12z"/> </g> </svg> 